<svg xmlns="http://www.w3.org/2000/svg" width="92.997" height="123" viewBox="0 0 92.997 123"><g transform="translate(-596 -270)"><path d="M769.03,423.592l-.136.054.136-.054Zm0,0-.136.054.136-.054Zm0,0-.136.054.136-.054Z" transform="translate(-80.033 -71.1)" fill="#e50019"/><path d="M626.46,270,596.6,352.681h25.374l8.966-26.766-17.15-14.634,22.229.049,6.827-24.649,6.839,24.649,22.228-.049L654.84,325.73l7.9,26.872,26.47.109L659.064,270Z" transform="translate(-0.286)" fill="red"/><path d="M767.244,423.159l-.14.056.14-.056Zm0,0-.14.056.14-.056Zm0,0-.14.056.14-.056Z" transform="translate(-79.187 -70.9)" fill="#e50019"/><path d="M616.641,461.373h-5.771l-1.907-6.173,3.7-3.251h-4.712l-1.633-5.259-1.629,5.259h-4.713l3.7,3.251-1.892,6.173H596l6.652-18.694h7.321" transform="translate(0 -79.37)" fill="red"/><path d="M644.643,446.067a4.58,4.58,0,0,0-1.39-.227c-1.163,0-1.693.556-1.693,1.895l-.019,1.1h2.59l.007,3.152h-2.6l.019,9.422H637.72l.01-9.429h-1.937V448.81h1.93l0-1.05c0-3.335,1.491-5.028,5.155-5.028a9.167,9.167,0,0,1,2.021.2l-.253,3.133Z" transform="translate(-18.377 -79.395)" fill="red"/><path d="M662.368,457.565c-2.1-.48-3.208.733-3.208,3.866v5.18h-3.841V454.053h3.588a15.618,15.618,0,0,1-.177,2.224h.051a3.73,3.73,0,0,1,3.765-2.527l-.177,3.816Z" transform="translate(-27.409 -84.602)" fill="red"/><path d="M673.95,447.208a2.27,2.27,0,1,1,2.375-2.267,2.311,2.311,0,0,1-2.375,2.267Zm-1.92,14.166-.013-12.592h3.832l.021,12.592Z" transform="translate(-34.955 -79.367)" fill="red"/><path d="M688.119,461.665a16.932,16.932,0,0,1-3.766-.41l.218-3.929a12.1,12.1,0,0,0,3.875.682c1.555,0,2.674-.655,2.674-1.965,0-3.138-7.34-1.528-7.34-7.695,0-3.465,2.7-5.758,7.313-5.758a18.846,18.846,0,0,1,3.356.327L694.2,446.6a12.033,12.033,0,0,0-3.274-.491c-1.774,0-2.592.764-2.592,1.8,0,2.865,7.34,1.773,7.34,7.531,0,3.575-2.865,6.222-7.558,6.222Z" transform="translate(-40.503 -79.329)" fill="#696b6e"/><path d="M716.51,466.6a12.132,12.132,0,0,1,.1-1.9h-.025a4.118,4.118,0,0,1-3.84,2.173c-2.4,0-3.663-1.415-3.663-3.436,0-3.184,3.083-4.7,7.075-4.7v-.48c0-1.036-.582-1.542-2.249-1.542a8.626,8.626,0,0,0-3.664.91l-.3-3.183a16.019,16.019,0,0,1,4.548-.733c4.321,0,5.534,1.617,5.534,4.5v5.407c0,.91.025,2,.1,2.981Zm-.354-5.407c-2.779,0-3.437.758-3.437,1.668,0,.632.455,1.087,1.263,1.087a2.291,2.291,0,0,0,2.173-2.4v-.354Z" transform="translate(-52.191 -84.588)" fill="#696b6e"/><path d="M748.507,466.642v-7.883c0-1.061-.252-1.718-1.137-1.718-1.163,0-2.451,1.49-2.451,3.563v6.039h-3.79v-7.883c0-1.011-.227-1.718-1.137-1.718-1.239,0-2.477,1.567-2.477,3.563v6.039h-3.84V454.084h3.613a15.868,15.868,0,0,1-.152,2h.025a4.507,4.507,0,0,1,4.018-2.274,3.243,3.243,0,0,1,3.436,2.274,4.392,4.392,0,0,1,3.967-2.274c2.451,0,3.79,1.39,3.79,4.219v8.616Z" transform="translate(-63.376 -84.633)" fill="#696b6e"/><path d="M599.553,490.788a2.381,2.381,0,0,1-.878.166A1.489,1.489,0,0,1,597,489.4a2.1,2.1,0,0,1,2.212-2.206,2.456,2.456,0,0,1,.948.207l.2-.592a3.216,3.216,0,0,0-1.166-.22,2.766,2.766,0,0,0-2.941,2.777,2.06,2.06,0,0,0,2.3,2.2,3.053,3.053,0,0,0,.9-.131l.091-.64Zm.549.688h.659l.372-1.729c.091-.434.491-1.3,1.306-1.3a.928.928,0,0,1,.281.069l.147-.572a.91.91,0,0,0-.3-.061,1.383,1.383,0,0,0-1.221.64h-.014l.112-.558h-.618c-.028.207-.07.392-.1.536l-.625,2.977Zm3.433-2.094a1.226,1.226,0,0,1,1.1-.979.679.679,0,0,1,.758.71,1.958,1.958,0,0,1-.021.269Zm2.023,1.44a2.774,2.774,0,0,1-1.011.213c-.639,0-1.1-.213-1.1-.951a1.138,1.138,0,0,1,.021-.221h2.521a3.614,3.614,0,0,0,.064-.64,1.231,1.231,0,0,0-1.348-1.344,2.023,2.023,0,0,0-1.959,2.094,1.441,1.441,0,0,0,1.65,1.585,4.571,4.571,0,0,0,1.061-.144l.105-.592Zm1.481-2.123a2.3,2.3,0,0,1,1.1-.3c.484,0,.822.193.822.7a1.118,1.118,0,0,1-.035.228c-.162-.007-.337-.021-.478-.021-1.2,0-2.121.282-2.121,1.281,0,.661.54.971,1.144.971a1.319,1.319,0,0,0,1.166-.668h.014l-.119.585h.611c.091-.619.238-1.274.372-1.929a2.964,2.964,0,0,0,.063-.551c0-.841-.694-1.116-1.418-1.116a3.736,3.736,0,0,0-1,.179l-.12.64Zm1.743,1.088a1.32,1.32,0,0,1-1.166,1.248c-.316,0-.59-.165-.59-.475,0-.641.752-.773,1.251-.773Zm1.51-1.3h.786l-.308,1.468a4.963,4.963,0,0,0-.126.827.764.764,0,0,0,.856.778,2.386,2.386,0,0,0,.646-.075l.1-.537a1.312,1.312,0,0,1-.464.09c-.337,0-.477-.131-.477-.379a5.156,5.156,0,0,1,.105-.662l.33-1.509h.99l.105-.523h-.983l.224-1.054-.709.241-.175.813h-.8l-.1.523Zm2.423,2.99h.66l.758-3.513h-.66l-.758,3.513Zm1.79-5.029h-.744l-.154.729h.744l.155-.729Zm-.055,5.029h.66l.379-1.771c.091-.434.492-1.3,1.306-1.3a.613.613,0,0,1,.653.641,2.217,2.217,0,0,1-.035.331l-.443,2.1h.66l.392-1.854a3.274,3.274,0,0,0,.084-.64,1.054,1.054,0,0,0-1.193-1.1,1.383,1.383,0,0,0-1.222.64h-.014l.112-.558h-.618c-.028.207-.07.392-.1.536l-.625,2.977Zm7.365-3.513-.126.62h-.014a1.2,1.2,0,0,0-1.173-.7c-1.032-.014-1.8.9-1.8,2.191a1.346,1.346,0,0,0,1.334,1.405,1.23,1.23,0,0,0,1.067-.4h.014l-.091.378a1.217,1.217,0,0,1-1.25,1.028,2.643,2.643,0,0,1-1.143-.31l-.148.579a3.253,3.253,0,0,0,1.2.255,1.793,1.793,0,0,0,1.924-1.275l.822-3.768Zm-2.415,2.074c0-.676.372-1.634,1.138-1.634a.879.879,0,0,1,.891.958c0,1.151-.653,1.592-1.229,1.592a.823.823,0,0,1-.8-.916Zm8.624.75a2.382,2.382,0,0,1-.878.166,1.489,1.489,0,0,1-1.671-1.557,2.1,2.1,0,0,1,2.212-2.206,2.457,2.457,0,0,1,.948.207l.2-.592a3.216,3.216,0,0,0-1.166-.22,2.766,2.766,0,0,0-2.941,2.777,2.06,2.06,0,0,0,2.3,2.2,3.054,3.054,0,0,0,.9-.131l.091-.64Zm.633-.793a1.455,1.455,0,0,0,1.629,1.564,1.962,1.962,0,0,0,2-2.142,1.448,1.448,0,0,0-1.586-1.536A1.968,1.968,0,0,0,628.654,490Zm.7.048c0-.73.436-1.641,1.313-1.641a.93.93,0,0,1,.914,1.013,1.539,1.539,0,0,1-1.307,1.62.886.886,0,0,1-.92-.992Zm3.329,1.432h.66l.379-1.771c.091-.434.492-1.3,1.306-1.3a.613.613,0,0,1,.653.641,2.226,2.226,0,0,1-.035.331l-.443,2.1h.66l.393-1.854a3.278,3.278,0,0,0,.084-.64,1.054,1.054,0,0,0-1.193-1.1,1.384,1.384,0,0,0-1.222.64h-.014l.112-.558h-.618c-.028.207-.07.392-.1.536l-.625,2.977Zm7.078-3.459a2.813,2.813,0,0,0-.927-.137,2.007,2.007,0,0,0-1.951,2.212,1.4,1.4,0,0,0,1.586,1.467,2.558,2.558,0,0,0,.688-.082l.119-.6a2.194,2.194,0,0,1-.723.159.912.912,0,0,1-.969-1.041,1.453,1.453,0,0,1,1.377-1.592,1.378,1.378,0,0,1,.639.172l.161-.558Zm-.02,3.459h.66l.372-1.729c.091-.434.491-1.3,1.306-1.3a.93.93,0,0,1,.28.069l.148-.572a.908.908,0,0,0-.3-.061,1.383,1.383,0,0,0-1.221.64h-.014l.112-.558h-.618c-.028.207-.07.392-.1.536l-.625,2.977Zm3.433-2.094a1.225,1.225,0,0,1,1.1-.979.68.68,0,0,1,.759.71,1.958,1.958,0,0,1-.021.269Zm2.023,1.44a2.775,2.775,0,0,1-1.011.213c-.639,0-1.1-.213-1.1-.951a1.182,1.182,0,0,1,.021-.221h2.521a3.686,3.686,0,0,0,.063-.64,1.23,1.23,0,0,0-1.348-1.344,2.023,2.023,0,0,0-1.959,2.094,1.441,1.441,0,0,0,1.65,1.585,4.569,4.569,0,0,0,1.061-.144l.1-.592Zm1-2.337h.786l-.309,1.468a5,5,0,0,0-.126.827.764.764,0,0,0,.856.778,2.384,2.384,0,0,0,.646-.075l.1-.537a1.311,1.311,0,0,1-.464.09c-.337,0-.478-.131-.478-.379a5.179,5.179,0,0,1,.105-.662l.33-1.509h.99l.105-.523h-.983l.225-1.054-.709.241-.176.813h-.8l-.1.523Zm3.258.9a1.226,1.226,0,0,1,1.1-.979.68.68,0,0,1,.759.71,1.958,1.958,0,0,1-.021.269Zm2.023,1.44a2.776,2.776,0,0,1-1.011.213c-.639,0-1.1-.213-1.1-.951a1.187,1.187,0,0,1,.021-.221h2.521a3.668,3.668,0,0,0,.063-.64,1.23,1.23,0,0,0-1.348-1.344,2.023,2.023,0,0,0-1.959,2.094,1.441,1.441,0,0,0,1.65,1.585,4.569,4.569,0,0,0,1.061-.144l.1-.592Zm2.626.654h.7l.428-1.922h.7c1.32,0,2.028-.681,2.028-1.633s-.842-1.254-1.572-1.254h-1.222l-1.068,4.809Zm1.644-4.2h.365c.59,0,1.109.083,1.109.752,0,.779-.752.924-1.475.924h-.372l.372-1.675ZM657.9,490a1.455,1.455,0,0,0,1.629,1.564,1.963,1.963,0,0,0,2-2.142,1.449,1.449,0,0,0-1.587-1.536A1.968,1.968,0,0,0,657.9,490Zm.7.048c0-.73.435-1.641,1.314-1.641a.93.93,0,0,1,.913,1.013,1.539,1.539,0,0,1-1.307,1.62.886.886,0,0,1-.92-.992Zm5.814-1.971a2.571,2.571,0,0,0-.933-.193c-.591,0-1.348.289-1.348,1.033,0,.889,1.222.979,1.222,1.578,0,.4-.394.544-.752.544a2.246,2.246,0,0,1-.821-.2l-.126.558a2.673,2.673,0,0,0,1.045.165,1.209,1.209,0,0,0,1.355-1.123c0-.979-1.221-1.006-1.221-1.606,0-.352.38-.427.668-.427a1.791,1.791,0,0,1,.715.179l.2-.509Zm2.556,0a2.571,2.571,0,0,0-.934-.193c-.59,0-1.348.289-1.348,1.033,0,.889,1.221.979,1.221,1.578,0,.4-.394.544-.752.544a2.245,2.245,0,0,1-.821-.2l-.126.558a2.671,2.671,0,0,0,1.045.165,1.209,1.209,0,0,0,1.355-1.123c0-.979-1.222-1.006-1.222-1.606,0-.352.38-.427.668-.427a1.792,1.792,0,0,1,.716.179l.2-.509Zm.113,3.4h.66l.758-3.513h-.659l-.758,3.513Zm1.79-5.029h-.744l-.155.729h.744l.155-.729Zm.921,3.665c0-.869.513-1.71,1.285-1.71a.767.767,0,0,1,.8.869c0,.875-.442,1.764-1.193,1.764a.861.861,0,0,1-.892-.923Zm-.976,1.363h.618l.12-.584h.014a1.13,1.13,0,0,0,1.208.667c1.194,0,1.8-1.054,1.8-2.342a1.236,1.236,0,0,0-1.277-1.337,1.394,1.394,0,0,0-1.138.461h-.014l.443-2.032h-.66l-1.117,5.166Zm4.157,0h.659l.758-3.513h-.66l-.758,3.513Zm1.79-5.029h-.744l-.155.729h.744l.155-.729Zm-.013,5.029h.66l1.115-5.166h-.66l-1.116,5.166Zm1.777,0h.66l.758-3.513h-.66l-.758,3.513Zm1.79-5.029h-.744l-.155.729h.744l.154-.729Zm.12,2.039h.786l-.308,1.468a4.95,4.95,0,0,0-.126.827.764.764,0,0,0,.856.778,2.386,2.386,0,0,0,.646-.075l.1-.537a1.312,1.312,0,0,1-.464.09c-.337,0-.477-.131-.477-.379a5.178,5.178,0,0,1,.105-.662l.33-1.509h.99l.105-.523H680l.225-1.054-.709.241-.176.813h-.8l-.1.523Zm2.423,2.99h.66l.758-3.513h-.659l-.758,3.513Zm1.79-5.029h-.744l-.154.729h.744l.155-.729Zm.821,2.935a1.226,1.226,0,0,1,1.1-.979.679.679,0,0,1,.758.71,1.968,1.968,0,0,1-.021.269Zm2.023,1.44a2.776,2.776,0,0,1-1.012.213c-.639,0-1.1-.213-1.1-.951a1.138,1.138,0,0,1,.022-.221h2.521a3.684,3.684,0,0,0,.063-.64,1.23,1.23,0,0,0-1.348-1.344,2.022,2.022,0,0,0-1.959,2.094,1.441,1.441,0,0,0,1.649,1.585,4.571,4.571,0,0,0,1.061-.144l.105-.592Zm3.313-2.75a2.57,2.57,0,0,0-.933-.193c-.59,0-1.348.289-1.348,1.033,0,.889,1.222.979,1.222,1.578,0,.4-.394.544-.752.544a2.246,2.246,0,0,1-.821-.2l-.126.558a2.674,2.674,0,0,0,1.046.165,1.209,1.209,0,0,0,1.355-1.123c0-.979-1.222-1.006-1.222-1.606,0-.352.38-.427.668-.427a1.791,1.791,0,0,1,.716.179l.2-.509Z" transform="translate(-0.123 -100.006)" fill="#6d6f72"/></g></svg>