<svg xmlns="http://www.w3.org/2000/svg" width="13.2" height="12">
    <defs>
        <style>
            .cls-1{fill:red}
        </style>
    </defs>
    <g id="LinkedIn" transform="translate(-736.343 -144.062)">
        <path id="Rectangle_52" data-name="Rectangle 52" class="cls-1" transform="translate(736.676 147.91)" d="M0 0h2.573v8.152H0z"/>
        <path id="Path_878" data-name="Path 878" class="cls-1" d="M754.312 154.6a2.642 2.642 0 0 0-2.568 1.358v-1.28h-2.89c.037.68 0 8.152 0 8.152h2.89v-4.411a1.859 1.859 0 0 1 .063-.666 1.472 1.472 0 0 1 1.393-1c1 0 1.46.754 1.46 1.858v4.218h2.917v-4.532c0-2.527-1.436-3.697-3.265-3.697z" transform="translate(-8.034 -6.765)"/>
        <path id="Path_879" data-name="Path 879" class="cls-1" d="M737.915 144.062a1.421 1.421 0 1 0-.036 2.829h.019a1.421 1.421 0 1 0 .018-2.829z"/>
    </g>
</svg>
