<svg xmlns="http://www.w3.org/2000/svg" width="86" height="18" viewBox="0 0 86 18"><g transform="translate(-493 -322)"><path d="M588.193,325.457a4.163,4.163,0,0,0-1.287-.215c-1.077,0-1.568.525-1.568,1.789l-.018,1.035h2.4l.006,2.975h-2.406l.018,8.895h-3.558l.01-8.9h-1.795v-2.989h1.788l0-.991c0-3.149,1.381-4.747,4.775-4.747a8.33,8.33,0,0,1,1.873.191l-.234,2.958Z" transform="translate(-67.216 -0.239)" fill="#ed1c24"/><path d="M629.278,349.955c-1.943-.445-2.973.679-2.973,3.581v4.8h-3.558V346.7h3.324a14.417,14.417,0,0,1-.164,2.06h.047a3.456,3.456,0,0,1,3.488-2.341l-.164,3.535Z" transform="translate(-100.262 -18.639)" fill="#ed1c24"/><path d="M660.573,326.46a2.141,2.141,0,1,1,2.2-2.14,2.16,2.16,0,0,1-2.2,2.14Zm-1.779,13.374-.012-11.888h3.55l.02,11.888Z" transform="translate(-127.83 -0.139)" fill="#ed1c24"/><path d="M689.085,340a15.416,15.416,0,0,1-3.489-.386l.2-3.708a11.033,11.033,0,0,0,3.59.644c1.441,0,2.477-.618,2.477-1.854,0-2.961-6.8-1.442-6.8-7.262,0-3.27,2.5-5.434,6.775-5.434a17.157,17.157,0,0,1,3.109.309l-.227,3.477a10.959,10.959,0,0,0-3.034-.463c-1.643,0-2.4.721-2.4,1.7,0,2.7,6.8,1.674,6.8,7.107,0,3.373-2.654,5.871-7,5.871Z" transform="translate(-148.37 0)" fill="#7d7e81"/><path d="M747.347,358.285a11.177,11.177,0,0,1,.094-1.756h-.024a3.815,3.815,0,0,1-3.558,2.013c-2.224,0-3.394-1.311-3.394-3.184,0-2.949,2.856-4.354,6.554-4.354v-.445c0-.96-.539-1.428-2.083-1.428a7.988,7.988,0,0,0-3.394.843l-.281-2.949a14.846,14.846,0,0,1,4.213-.679c4,0,5.126,1.5,5.126,4.167v5.009c0,.843.023,1.849.094,2.762Zm-.327-5.009c-2.575,0-3.184.7-3.184,1.545,0,.585.422,1.006,1.17,1.006a2.123,2.123,0,0,0,2.013-2.224v-.328Z" transform="translate(-191.178 -18.588)" fill="#7d7e81"/><path d="M808.058,358.448v-7.3c0-.983-.234-1.592-1.053-1.592-1.077,0-2.271,1.381-2.271,3.3v5.594h-3.511v-7.3c0-.936-.211-1.592-1.053-1.592-1.147,0-2.294,1.452-2.294,3.3v5.594h-3.558V346.815h3.347a14.75,14.75,0,0,1-.14,1.849h.023a4.175,4.175,0,0,1,3.722-2.107,3,3,0,0,1,3.183,2.107,4.069,4.069,0,0,1,3.675-2.107c2.27,0,3.511,1.287,3.511,3.909v7.982Z" transform="translate(-232.639 -18.752)" fill="#7d7e81"/><path d="M512.091,339.938h-4.715l-2.119-6.058,3.157-2.825-4.125,0-1.744-4.959-1.713,4.957h-4.153l3.16,2.827-2.119,6.056H493l6.153-17.621h6.772" transform="translate(0 -0.246)" fill="#ed1c24"/></g></svg>