<svg xmlns="http://www.w3.org/2000/svg" width="14.4" height="12" viewBox="0 0 14.4 12"><path d="M877.939,144.96a5.808,5.808,0,0,1-1.877.734,2.914,2.914,0,0,0-2.156-.956,2.993,2.993,0,0,0-2.953,3.029,3.091,3.091,0,0,0,.076.69,8.317,8.317,0,0,1-6.09-3.166,3.084,3.084,0,0,0-.4,1.525,3.049,3.049,0,0,0,1.314,2.521,2.9,2.9,0,0,1-1.339-.378V149a3.012,3.012,0,0,0,2.371,2.97,2.816,2.816,0,0,1-.779.107,2.885,2.885,0,0,1-.556-.053,2.966,2.966,0,0,0,2.76,2.1,5.834,5.834,0,0,1-3.669,1.3,5.92,5.92,0,0,1-.7-.042,8.223,8.223,0,0,0,4.528,1.36,8.463,8.463,0,0,0,8.406-8.619c0-.132,0-.263-.008-.393a6.062,6.062,0,0,0,1.473-1.568,5.786,5.786,0,0,1-1.7.477A3.023,3.023,0,0,0,877.939,144.96Z" transform="translate(-863.936 -144.738)" fill="#727372"/></svg>