<svg xmlns="http://www.w3.org/2000/svg" width="13.2" height="12" viewBox="0 0 13.2 12"><g transform="translate(-736.343 -144.062)"><rect width="2.573" height="8.152" transform="translate(736.676 147.91)" fill="#727372"/><path d="M754.312,154.6a2.642,2.642,0,0,0-2.568,1.358v-1.28h-2.89c.037.68,0,8.152,0,8.152h2.89v-4.411a1.859,1.859,0,0,1,.063-.666,1.472,1.472,0,0,1,1.393-1c1,0,1.46.754,1.46,1.858v4.218h2.917v-4.532C757.577,155.77,756.141,154.6,754.312,154.6Z" transform="translate(-8.034 -6.765)" fill="#727372"/><path d="M737.915,144.062a1.421,1.421,0,1,0-.036,2.829h.019a1.421,1.421,0,1,0,.018-2.829Z" fill="#727372"/></g></svg>