<svg xmlns="http://www.w3.org/2000/svg" width="15.996" height="12" viewBox="0 0 15.996 12"><path d="M337.393,100.643a2.427,2.427,0,0,0-2.312-2.535c-1.731-.083-3.5-.114-5.3-.114h-.563c-1.8,0-3.569.031-5.3.114a2.433,2.433,0,0,0-2.309,2.542c-.078,1.113-.112,2.226-.11,3.337s.031,2.226.107,3.342a2.437,2.437,0,0,0,2.31,2.547c1.818.082,3.683.121,5.58.118s3.759-.031,5.581-.118a2.438,2.438,0,0,0,2.313-2.547q.112-1.675.106-3.343.01-1.67-.1-3.343m-9.424,6.41v-6.141l4.531,3.071Z" transform="translate(-321.5 -97.995)" fill="#727372"/></svg>