<svg xmlns="http://www.w3.org/2000/svg" width="24" height="24">
    <g transform="translate(-64 -1240)">
        <circle data-name="Ellipse 19" cx="12" cy="12" r="12" transform="translate(64 1240)" style="fill:#f3f5f8"/>
        <path d="M875.6 144.923a4.84 4.84 0 0 1-1.564.612 2.428 2.428 0 0 0-1.8-.8 2.494 2.494 0 0 0-2.461 2.524 2.575 2.575 0 0 0 .063.575 6.931 6.931 0 0 1-5.075-2.639 2.57 2.57 0 0 0-.333 1.271 2.541 2.541 0 0 0 1.1 2.1 2.417 2.417 0 0 1-1.116-.315v.031a2.51 2.51 0 0 0 1.976 2.475 2.347 2.347 0 0 1-.649.089 2.4 2.4 0 0 1-.464-.045 2.472 2.472 0 0 0 2.3 1.752 4.862 4.862 0 0 1-3.058 1.081 4.936 4.936 0 0 1-.587-.035 6.853 6.853 0 0 0 3.774 1.133 7.052 7.052 0 0 0 7-7.182c0-.11 0-.219-.006-.327a5.052 5.052 0 0 0 1.228-1.307 4.822 4.822 0 0 1-1.414.4 2.519 2.519 0 0 0 1.086-1.393z" transform="translate(-793.437 1102.762)" style="fill:#6d6f72"/>
    </g>
</svg>
